<?xml version="1.0" encoding="UTF-8"?>
<!DOCTYPE svg PUBLIC "-//W3C//DTD SVG 1.1//EN" "http://www.w3.org/Graphics/SVG/1.1/DTD/svg11.dtd">
<svg version="1.1" xmlns="http://www.w3.org/2000/svg" xmlns:xlink="http://www.w3.org/1999/xlink" x="0px" y="0px" width="128" height="128" viewBox="0, 0, 128, 128">
  <g id="Background">
    <rect x="0" y="0" width="128" height="128" fill="#000000" fill-opacity="0"/>
  </g>
  <g id="Background">
    <path d="M18.093,6 L109.907,6 C116.561,6 122,11.439 122,18.093 L122,109.907 C122,116.561 116.561,122 109.907,122 L18.093,122 C11.439,122 6,116.561 6,109.907 L6,18.093 C6,11.439 11.439,6 18.093,6" fill="#727272"/>
    <path d="M112.678,121.676 L104.12,101.404 L94.215,103.445 L98.292,78.094 L105.87,79.55 L110.532,67.602 L95.38,36.713 L71.772,53.03 L70.027,61.772 L78.769,62.355 L73.23,80.13 L63.323,81.007 L59.826,53.03 L67.694,50.994 L59.739,36.982 L59.739,22.354 L55.166,22.354 L55.166,28.926 L48.171,16.604 L32.433,43.996 L37.681,48.074 L38.261,63.233 L21.362,57.986 L16.699,78.674 L23.985,75.76 L24.276,88.291 L18.737,88.584 L21.07,116.268 L27.483,115.684 L27.843,122 L32.657,122 L49.682,99.928 L66.328,110.245 L63.278,97.585 L69.845,97.352 L74.06,114.226 L87.67,122 L109.907,122 C110.861,122 111.787,121.89 112.678,121.676" fill="#EBEDED"/>
    <path d="M54.035,60.388 L54.227,62.128 L46.349,62.995 L46.162,61.274 C46.12,61.105 46.088,60.936 46.07,60.752 C45.828,58.561 47.407,56.587 49.6,56.346 C51.793,56.104 53.765,57.684 54.006,59.88 C54.026,60.05 54.035,60.219 54.035,60.388 z M54.395,63.667 L54.738,66.768 L46.864,67.635 L46.523,64.535 z M54.907,68.307 L55.25,71.408 L47.377,72.275 L47.033,69.175 z M55.418,72.947 L55.761,76.043 L47.887,76.915 L47.544,73.815 z M55.93,77.582 L56.363,81.527 L48.49,82.396 L48.056,78.455 z" fill="#727272"/>
    <path d="M77.367,93.575 L81.518,94.493 L80.656,98.394 L76.504,97.476 z M81.39,99.776 L85.537,100.695 L84.674,104.595 L80.527,103.672 z M76.248,98.636 L80.395,99.557 L79.531,103.453 L75.384,102.536 z M82.51,94.713 L86.66,95.634 L85.797,99.53 L81.646,98.613 z" fill="#727272"/>
    <path d="M82.254,74.599 L86.404,75.518 L85.542,79.418 L81.39,78.5 z M86.277,80.802 L90.424,81.719 L89.56,85.619 L85.413,84.696 z M81.134,79.66 L85.281,80.582 L84.418,84.477 L80.272,83.56 z M87.397,75.737 L91.547,76.66 L90.685,80.554 L86.533,79.637 z" fill="#727272"/>
    <path d="M91.35,55.679 C94.772,55.679 97.548,58.456 97.548,61.877 C97.548,65.297 94.772,68.073 91.35,68.073 C87.93,68.073 85.154,65.297 85.154,61.877 C85.154,58.456 87.93,55.679 91.35,55.679" fill="#727272"/>
    <path d="M93.274,6 C94.2,7.909 94.713,10.05 94.713,12.316 C94.713,20.331 88.218,26.825 80.203,26.825 C73.865,26.825 68.479,22.765 66.502,17.102 C68.909,19.97 72.516,21.792 76.554,21.792 C83.802,21.792 89.675,15.92 89.675,8.676 C89.675,7.758 89.58,6.864 89.401,6 z" fill="#EBECEC"/>
  </g>
  <defs/>
</svg>
